<?xml version="1.0" standalone="no"?>
<!DOCTYPE svg PUBLIC "-//W3C//DTD SVG 20010904//EN"
 "http://www.w3.org/TR/2001/REC-SVG-20010904/DTD/svg10.dtd">
<svg version="1.0" xmlns="http://www.w3.org/2000/svg"
 width="200.000000pt" height="200.000000pt" viewBox="0 0 200.000000 200.000000"
 preserveAspectRatio="xMidYMid meet">
<metadata>
Created by potrace 1.11, written by Peter Selinger 2001-2013
</metadata>
<g transform="translate(0.000000,200.000000) scale(0.100000,-0.100000)"
fill="#000000" stroke="none">
<path d="M1437 1492 c-28 -6 -9 -22 27 -22 72 0 127 -43 130 -102 2 -29 26
-79 45 -94 29 -23 1 -36 -63 -29 -33 4 -63 9 -67 10 -3 2 -30 6 -60 9 -86 8
-161 25 -186 41 -23 15 -23 15 -23 -35 0 -46 3 -51 28 -61 15 -6 50 -13 77
-15 92 -8 130 -13 152 -18 11 -2 42 -8 67 -11 54 -8 77 -29 49 -43 -10 -5 -26
-8 -35 -7 -10 2 -18 -1 -18 -6 0 -6 -4 -8 -8 -5 -4 2 -18 -11 -31 -30 -25 -36
-39 -134 -20 -134 6 0 8 -4 5 -8 -7 -13 6 -28 42 -46 24 -12 32 -13 32 -4 0 9
3 8 10 -2 9 -14 15 -7 10 15 -1 6 4 4 11 -2 9 -9 16 -10 26 -2 9 8 13 8 13 1
0 -6 10 -16 21 -23 15 -8 19 -8 15 0 -4 6 -2 11 4 11 6 0 9 4 5 9 -3 5 0 13 6
17 8 5 9 3 4 -6 -5 -8 -3 -11 6 -8 8 3 16 13 17 23 3 12 0 15 -10 9 -10 -6
-11 -5 -2 7 11 13 2 59 -11 59 -4 0 -3 -4 0 -10 3 -5 2 -10 -3 -10 -5 0 -12
11 -14 25 -3 13 -1 22 4 19 5 -3 7 11 5 30 -4 32 -2 35 11 24 13 -11 14 -11 8
0 -5 8 -9 26 -10 42 -2 29 -3 29 74 16 14 -3 27 -5 30 -5 3 -1 -8 -10 -23 -20
-16 -10 -28 -21 -28 -24 0 -4 -6 -18 -13 -32 -21 -40 -11 -99 22 -133 15 -16
34 -26 41 -24 8 3 11 0 7 -7 -5 -7 2 -10 18 -9 15 1 26 5 26 9 0 4 7 10 16 13
15 6 15 4 3 -11 -12 -15 -12 -16 1 -8 8 6 18 10 22 10 3 0 10 4 15 9 5 5 3 6
-4 2 -7 -4 -13 -2 -13 3 0 6 6 11 14 11 8 0 18 5 22 12 4 6 3 8 -4 4 -6 -3 -9
1 -8 10 1 8 9 20 17 25 12 7 12 9 0 9 -11 0 -10 4 5 16 10 8 13 12 6 9 -10 -5
-12 0 -9 23 4 21 0 32 -10 36 -8 3 -12 10 -8 15 3 6 -3 14 -12 20 -14 8 -6 10
35 11 l52 0 0 35 c0 31 -3 35 -26 35 -41 0 -83 27 -97 63 -3 9 -11 17 -17 17
-5 0 -10 6 -10 13 0 26 -62 96 -115 132 -30 20 -55 42 -55 49 0 14 -44 59 -51
52 -9 -10 -106 -15 -139 -8 -19 5 -43 6 -53 4z m177 -450 c-1 -7 -2 -21 -2
-33 -1 -11 -6 -18 -11 -15 -5 4 -7 -3 -4 -14 4 -15 2 -19 -10 -14 -12 4 -13
12 -6 37 5 18 9 33 9 35 0 2 5 0 10 -3 6 -3 10 -2 10 4 0 5 -5 12 -10 14 -6 3
-5 4 2 3 7 -2 13 -8 12 -14z m241 -43 c0 -35 -4 -45 -19 -47 -14 -3 -17 0 -13
12 4 9 1 16 -5 16 -9 0 -9 3 0 12 7 7 12 23 12 36 0 14 5 22 13 19 7 -2 12
-21 12 -48z"/>
<path d="M414 1209 c-3 -5 -9 -7 -14 -4 -13 8 -31 -21 -24 -39 3 -9 9 -16 13
-16 13 0 5 -41 -10 -51 -8 -5 -9 -9 -3 -9 7 0 10 -15 7 -37 -9 -99 -9 -119 2
-140 7 -12 15 -20 18 -16 4 3 7 -2 7 -13 0 -14 2 -16 9 -5 7 10 10 10 13 1 3
-10 10 -9 29 4 14 9 29 13 34 9 4 -5 5 -2 1 5 -4 7 -2 20 5 28 10 12 10 15 -2
12 -8 -2 -13 3 -11 11 2 8 -2 17 -9 21 -6 4 -13 22 -15 39 -3 22 0 30 8 25 7
-5 8 -3 2 7 -10 17 -6 49 9 68 9 12 9 13 0 7 -7 -4 -13 -3 -13 3 0 5 5 13 10
16 8 5 8 11 0 20 -8 10 -7 14 2 18 10 4 10 6 1 6 -7 1 -13 8 -13 16 0 8 -3 15
-7 16 -5 0 -16 2 -25 4 -10 2 -20 -1 -24 -6z"/>
<path d="M145 1200 c-3 -6 -10 -8 -15 -5 -4 3 -7 -7 -5 -22 1 -15 7 -29 12
-30 16 -6 0 -196 -17 -201 -5 -2 -10 -15 -10 -28 0 -14 4 -23 9 -20 5 3 11 0
14 -8 4 -10 62 -16 62 -6 0 1 8 3 18 5 9 2 15 0 12 -5 -3 -4 2 -10 10 -13 10
-4 12 -1 8 11 -6 15 -5 15 10 3 16 -13 22 -8 18 13 -1 5 5 4 13 -3 9 -7 13
-18 9 -24 -3 -6 -1 -7 6 -3 6 4 8 13 5 19 -5 9 -3 8 6 0 17 -16 41 2 33 24 -5
11 -3 14 6 8 10 -6 11 -3 2 13 -14 27 -14 35 2 26 6 -4 4 2 -6 14 -11 11 -16
25 -13 31 4 6 -2 8 -14 6 -17 -3 -19 0 -15 26 3 17 2 28 -3 25 -5 -3 -9 5 -8
17 2 26 -10 37 -41 37 -13 0 -20 6 -19 15 3 21 13 28 22 14 5 -8 3 -10 -6 -4
-9 5 -11 4 -6 -4 6 -9 11 -9 24 1 11 9 13 9 9 1 -5 -7 1 -17 13 -23 14 -8 19
-17 15 -28 -5 -13 -2 -12 15 3 20 19 21 19 15 -1 -6 -17 -6 -18 5 -1 12 19 8
63 -8 94 -9 16 -21 19 -84 18 -40 -1 -78 2 -85 7 -7 5 -14 5 -18 -2z m105
-104 c0 -3 -4 -8 -10 -11 -5 -3 -10 -1 -10 4 0 6 5 11 10 11 6 0 10 -2 10 -4z
m13 -109 c-4 -6 0 -8 10 -4 10 3 17 3 17 -1 -1 -17 -17 -31 -41 -35 -19 -4
-26 -1 -26 11 0 10 5 20 11 24 8 5 7 8 -1 8 -7 0 -13 4 -13 9 0 4 11 6 25 3
14 -2 22 -9 18 -15z"/>
<path d="M710 1202 c0 -5 -13 -8 -29 -7 -31 3 -48 -24 -29 -43 15 -15 22 -82
8 -82 -6 0 -8 -5 -3 -12 12 -20 13 -40 1 -61 -7 -14 -7 -17 1 -13 8 5 8 0 -1
-18 -6 -14 -14 -26 -17 -26 -17 0 -8 -40 10 -45 11 -4 17 -10 15 -14 -6 -9 55
-8 71 2 7 4 13 0 16 -10 4 -15 5 -15 6 2 1 17 3 18 11 5 9 -13 10 -13 10 0 0
13 1 13 10 0 9 -13 11 -13 20 0 9 13 10 13 10 0 0 -13 1 -13 10 0 9 13 10 13
10 0 0 -12 2 -13 9 -1 7 11 10 11 15 0 3 -8 4 -1 2 14 -3 23 0 27 13 22 13 -5
14 -4 4 6 -7 7 -13 23 -13 35 0 12 -7 27 -15 34 -8 7 -12 16 -9 21 3 5 -3 6
-13 2 -15 -6 -16 -4 -5 9 8 10 9 19 3 22 -5 3 -8 14 -7 23 2 10 -2 22 -8 28
-15 15 -49 27 -41 15 3 -6 1 -10 -5 -10 -6 0 -8 -6 -4 -12 5 -10 4 -10 -5 -2
-16 15 -3 44 20 44 11 0 33 -14 49 -30 17 -17 30 -26 30 -20 0 6 4 9 8 6 4 -2
8 6 8 20 0 13 -5 24 -10 25 -6 0 -2 4 9 9 18 8 18 9 2 9 -10 1 -16 5 -13 9 13
21 -15 36 -71 37 -32 0 -64 4 -70 8 -7 5 -13 4 -13 -1z m70 -208 c0 4 7 0 16
-8 19 -20 12 -32 -21 -38 -24 -5 -26 -3 -23 34 2 35 3 38 15 22 7 -10 13 -14
13 -10z"/>
<path d="M1157 1166 c-8 -8 -18 -12 -22 -8 -4 4 -5 0 -3 -8 2 -8 -7 -19 -19
-24 -29 -14 -36 -32 -17 -50 9 -9 10 -17 4 -21 -6 -4 -7 -12 -3 -18 4 -7 8
-35 8 -64 1 -52 16 -83 42 -83 8 0 11 -4 8 -10 -9 -14 8 -12 24 3 9 7 11 7 8
1 -4 -7 0 -14 7 -17 10 -4 13 0 11 14 -3 16 -1 18 17 8 13 -7 18 -7 14 -1 -7
11 9 25 32 28 7 2 16 -4 19 -12 3 -8 12 -14 20 -14 8 0 12 -4 9 -8 -3 -5 8 -8
24 -8 16 0 27 3 24 8 -3 4 0 8 6 8 6 0 8 6 4 13 -4 6 3 3 16 -8 13 -11 20 -14
16 -8 -5 9 -2 11 8 7 9 -3 13 -10 10 -15 -3 -5 0 -9 5 -9 6 0 11 6 11 13 0 8
4 7 10 -3 8 -13 10 -12 10 3 0 9 5 16 11 15 6 -2 13 5 14 15 2 9 0 17 -4 17
-4 0 -7 10 -7 23 1 12 -4 21 -10 20 -8 -1 -10 11 -8 35 3 20 4 44 4 52 0 8 0
23 -1 33 0 9 -4 15 -9 12 -5 -3 -12 0 -15 6 -4 5 -13 8 -21 5 -8 -3 -14 -1
-14 5 0 6 -7 6 -17 1 -10 -4 -25 -8 -33 -7 -24 1 -80 -57 -87 -90 -8 -40 -8
-56 1 -82 5 -16 3 -21 -8 -19 -9 1 -19 6 -23 11 -4 4 -2 5 6 0 24 -14 7 17
-19 34 -18 12 -22 12 -16 2 6 -9 5 -12 -5 -9 -15 5 -19 68 -4 84 6 7 15 8 20
4 6 -4 17 -1 25 8 13 14 12 15 -2 9 -15 -5 -16 -2 -8 18 6 17 6 25 -1 25 -15
0 -39 26 -39 44 0 22 -16 28 -33 12z m208 -163 c-6 -33 -20 -49 -30 -32 -6 8
-4 10 5 4 9 -5 10 -2 5 14 -4 12 -2 21 4 21 6 0 7 7 4 17 -4 11 -3 14 5 9 7
-4 10 -19 7 -33z"/>
<path d="M960 1118 c0 -5 -4 -7 -8 -4 -13 8 -57 -37 -59 -61 -2 -13 1 -23 6
-23 4 0 13 -12 19 -26 7 -14 8 -23 3 -20 -9 6 -25 -10 -33 -34 -3 -8 8 -28 25
-45 16 -16 26 -23 22 -15 -4 8 2 5 14 -7 22 -24 37 -31 26 -13 -8 13 1 13 27
-1 13 -7 18 -7 14 0 -7 11 28 34 37 24 8 -7 18 37 14 59 -2 10 -6 21 -10 24
-10 11 -9 44 2 44 8 0 8 21 1 40 -1 3 -2 9 -1 13 2 14 -23 32 -61 44 -23 7
-38 7 -38 1z m83 -93 c-3 -9 -8 -14 -10 -11 -3 3 -2 9 2 15 9 16 15 13 8 -4z
m-59 -84 c-5 -6 -44 30 -44 41 0 5 11 -2 24 -14 13 -13 22 -25 20 -27z m21
-51 c3 -6 -1 -7 -9 -4 -18 7 -21 14 -7 14 6 0 13 -4 16 -10z"/>
</g>
</svg>
